<svg xmlns="http://www.w3.org/2000/svg" width="74" height="74" viewBox="0 0 74 74"><g><g><g opacity=".25"><path fill="#fff" d="M37-.001c20.434 0 37 16.565 37 37 0 20.434-16.566 37-37 37C16.565 74 0 57.433 0 37c0-20.435 16.565-37 37-37z"/></g><g><path fill="#f4f5f9" d="M37 5c17.673 0 32 14.325 32 31.998C69 54.672 54.673 69 37 69c-17.673 0-32-14.327-32-32 0-17.674 14.327-32 32-32z"/></g><g><path fill="#e74c3c" d="M48.926 39.97a.64.64 0 0 1-.567.348h-1.35c-.502 3.495-3.455 7.06-6.78 8.238l.25.312c.177.22.192.535.037.774l-1.98 3.062A.638.638 0 0 1 38 53a.639.639 0 0 1-.536-.295l-1.98-3.062a.665.665 0 0 1 .037-.774l.249-.312c-3.325-1.178-6.277-4.743-6.78-8.238h-1.35a.64.64 0 0 1-.566-.348.667.667 0 0 1 .036-.674l2.509-3.774a.637.637 0 0 1 1.061 0l2.51 3.774c.133.2.146.46.035.674a.64.64 0 0 1-.566.348H31.42c.534 2.248 2.749 4.048 5.084 4.613V30.466h-1.995c-.55 0-.997-.456-.997-1.018s.446-1.018.997-1.018h1.027a3.727 3.727 0 0 1-1.176-2.717c0-2.049 1.633-3.715 3.64-3.715 2.006 0 3.64 1.666 3.64 3.715a3.73 3.73 0 0 1-1.177 2.717h1.028c.55 0 .997.456.997 1.018s-.446 1.018-.997 1.018h-1.995v14.465c2.335-.565 4.549-2.366 5.083-4.613H43.34a.64.64 0 0 1-.567-.348.667.667 0 0 1 .036-.674l2.51-3.774a.637.637 0 0 1 1.06 0l2.51 3.774c.133.2.147.46.036.674zM36.355 25.713c0 .926.738 1.678 1.645 1.678s1.645-.752 1.645-1.678c0-.926-.738-1.679-1.645-1.679s-1.645.753-1.645 1.679z"/></g></g></g></svg>